<mxfile host="Electron" agent="Mozilla/5.0 (Windows NT 10.0; Win64; x64) AppleWebKit/537.36 (KHTML, like Gecko) draw.io/24.7.17 Chrome/128.0.6613.36 Electron/32.0.1 Safari/537.36" version="24.7.17">
  <diagram id="C5RBs43oDa-KdzZeNtuy" name="Page-1">
    <mxGraphModel dx="1434" dy="836" grid="1" gridSize="10" guides="1" tooltips="1" connect="1" arrows="1" fold="1" page="1" pageScale="1" pageWidth="827" pageHeight="1169" math="0" shadow="0">
      <root>
        <mxCell id="WIyWlLk6GJQsqaUBKTNV-0" />
        <mxCell id="WIyWlLk6GJQsqaUBKTNV-1" parent="WIyWlLk6GJQsqaUBKTNV-0" />
        <mxCell id="FpcgvYUmlf7-7PS77j_y-2" value="" style="edgeStyle=orthogonalEdgeStyle;rounded=0;orthogonalLoop=1;jettySize=auto;html=1;" edge="1" parent="WIyWlLk6GJQsqaUBKTNV-1" source="FpcgvYUmlf7-7PS77j_y-0" target="FpcgvYUmlf7-7PS77j_y-1">
          <mxGeometry relative="1" as="geometry" />
        </mxCell>
        <mxCell id="FpcgvYUmlf7-7PS77j_y-0" value="Bắt đầu" style="ellipse;whiteSpace=wrap;html=1;" vertex="1" parent="WIyWlLk6GJQsqaUBKTNV-1">
          <mxGeometry x="360" y="100" width="120" height="80" as="geometry" />
        </mxCell>
        <mxCell id="FpcgvYUmlf7-7PS77j_y-4" value="" style="edgeStyle=orthogonalEdgeStyle;rounded=0;orthogonalLoop=1;jettySize=auto;html=1;" edge="1" parent="WIyWlLk6GJQsqaUBKTNV-1" source="FpcgvYUmlf7-7PS77j_y-1" target="FpcgvYUmlf7-7PS77j_y-3">
          <mxGeometry relative="1" as="geometry" />
        </mxCell>
        <mxCell id="FpcgvYUmlf7-7PS77j_y-1" value="nhập 1 số nguyên n" style="shape=parallelogram;perimeter=parallelogramPerimeter;whiteSpace=wrap;html=1;fixedSize=1;" vertex="1" parent="WIyWlLk6GJQsqaUBKTNV-1">
          <mxGeometry x="350" y="220" width="140" height="80" as="geometry" />
        </mxCell>
        <mxCell id="FpcgvYUmlf7-7PS77j_y-6" value="đúng" style="edgeStyle=orthogonalEdgeStyle;rounded=0;orthogonalLoop=1;jettySize=auto;html=1;" edge="1" parent="WIyWlLk6GJQsqaUBKTNV-1" source="FpcgvYUmlf7-7PS77j_y-3" target="FpcgvYUmlf7-7PS77j_y-5">
          <mxGeometry relative="1" as="geometry" />
        </mxCell>
        <mxCell id="FpcgvYUmlf7-7PS77j_y-8" value="sai" style="edgeStyle=orthogonalEdgeStyle;rounded=0;orthogonalLoop=1;jettySize=auto;html=1;" edge="1" parent="WIyWlLk6GJQsqaUBKTNV-1" source="FpcgvYUmlf7-7PS77j_y-3" target="FpcgvYUmlf7-7PS77j_y-7">
          <mxGeometry relative="1" as="geometry" />
        </mxCell>
        <mxCell id="FpcgvYUmlf7-7PS77j_y-3" value="n/2=0" style="rhombus;whiteSpace=wrap;html=1;" vertex="1" parent="WIyWlLk6GJQsqaUBKTNV-1">
          <mxGeometry x="367.5" y="340" width="105" height="80" as="geometry" />
        </mxCell>
        <mxCell id="FpcgvYUmlf7-7PS77j_y-12" style="edgeStyle=orthogonalEdgeStyle;rounded=0;orthogonalLoop=1;jettySize=auto;html=1;entryX=1;entryY=0.5;entryDx=0;entryDy=0;" edge="1" parent="WIyWlLk6GJQsqaUBKTNV-1" target="FpcgvYUmlf7-7PS77j_y-18">
          <mxGeometry relative="1" as="geometry">
            <mxPoint x="488" y="550" as="targetPoint" />
            <mxPoint x="600" y="410" as="sourcePoint" />
            <Array as="points">
              <mxPoint x="600" y="550" />
            </Array>
          </mxGeometry>
        </mxCell>
        <mxCell id="FpcgvYUmlf7-7PS77j_y-5" value="số chẵn" style="shape=parallelogram;perimeter=parallelogramPerimeter;whiteSpace=wrap;html=1;fixedSize=1;" vertex="1" parent="WIyWlLk6GJQsqaUBKTNV-1">
          <mxGeometry x="545" y="350" width="120" height="60" as="geometry" />
        </mxCell>
        <mxCell id="FpcgvYUmlf7-7PS77j_y-14" style="edgeStyle=elbowEdgeStyle;rounded=0;orthogonalLoop=1;jettySize=auto;html=1;entryX=0;entryY=0.5;entryDx=0;entryDy=0;" edge="1" parent="WIyWlLk6GJQsqaUBKTNV-1" target="FpcgvYUmlf7-7PS77j_y-18">
          <mxGeometry relative="1" as="geometry">
            <mxPoint x="368" y="550" as="targetPoint" />
            <mxPoint x="234.5" y="410" as="sourcePoint" />
          </mxGeometry>
        </mxCell>
        <mxCell id="FpcgvYUmlf7-7PS77j_y-7" value="số lẻ" style="shape=parallelogram;perimeter=parallelogramPerimeter;whiteSpace=wrap;html=1;fixedSize=1;" vertex="1" parent="WIyWlLk6GJQsqaUBKTNV-1">
          <mxGeometry x="175" y="350" width="120" height="60" as="geometry" />
        </mxCell>
        <mxCell id="FpcgvYUmlf7-7PS77j_y-21" value="" style="edgeStyle=orthogonalEdgeStyle;rounded=0;orthogonalLoop=1;jettySize=auto;html=1;" edge="1" parent="WIyWlLk6GJQsqaUBKTNV-1" source="FpcgvYUmlf7-7PS77j_y-18" target="FpcgvYUmlf7-7PS77j_y-20">
          <mxGeometry relative="1" as="geometry" />
        </mxCell>
        <mxCell id="FpcgvYUmlf7-7PS77j_y-18" value="hiển thị kết quả" style="shape=parallelogram;perimeter=parallelogramPerimeter;whiteSpace=wrap;html=1;fixedSize=1;" vertex="1" parent="WIyWlLk6GJQsqaUBKTNV-1">
          <mxGeometry x="360" y="520" width="120" height="60" as="geometry" />
        </mxCell>
        <mxCell id="FpcgvYUmlf7-7PS77j_y-20" value="Kết thúc" style="ellipse;whiteSpace=wrap;html=1;" vertex="1" parent="WIyWlLk6GJQsqaUBKTNV-1">
          <mxGeometry x="360" y="640" width="120" height="80" as="geometry" />
        </mxCell>
      </root>
    </mxGraphModel>
  </diagram>
</mxfile>
